<svg xmlns="http://www.w3.org/2000/svg" viewBox="0 0 256 256" role="img" aria-labelledby="title desc">
  <title id="title">Diag.JS logo</title>
  <desc id="desc">A stylized single-line electrical diagram panel with a copper bus and feeders.</desc>
  <defs>
    <linearGradient id="bg" x1="24" y1="20" x2="228" y2="236" gradientUnits="userSpaceOnUse">
      <stop offset="0" stop-color="#f3eee2"/>
      <stop offset="0.46" stop-color="#d7e0e6"/>
      <stop offset="1" stop-color="#8da0ad"/>
    </linearGradient>
    <linearGradient id="card" x1="42" y1="34" x2="202" y2="220" gradientUnits="userSpaceOnUse">
      <stop offset="0" stop-color="#fffffd"/>
      <stop offset="1" stop-color="#eef3f6"/>
    </linearGradient>
    <linearGradient id="copper" x1="97" y1="140" x2="171" y2="140" gradientUnits="userSpaceOnUse">
      <stop offset="0" stop-color="#f0c985"/>
      <stop offset="1" stop-color="#b66e1f"/>
    </linearGradient>
  </defs>
  <rect x="8" y="8" width="240" height="240" rx="52" fill="url(#bg)"/>
  <rect x="18" y="18" width="220" height="220" rx="44" fill="none" stroke="#ffffff" stroke-opacity=".45" stroke-width="2"/>
  <rect x="28" y="24" width="200" height="208" rx="34" fill="url(#card)" stroke="#b7c6cf" stroke-width="2"/>
  <rect x="42" y="38" width="76" height="28" rx="14" fill="#ffffff" stroke="#8a9ba8" stroke-width="1.5"/>
  <text x="80" y="57" text-anchor="middle" font-family="Trebuchet MS, Verdana, sans-serif" font-size="16" font-weight="700" letter-spacing="2" fill="#294560">DJS</text>
  <rect x="54" y="82" width="148" height="120" rx="22" fill="#fbfcfd" stroke="#c4d0d8" stroke-width="2"/>
  <path d="M 90 90 V 194 M 166 90 V 194" fill="none" stroke="#c7d3da" stroke-width="1.5"/>
  <path d="M 60 102 H 196 M 60 182 H 196" fill="none" stroke="#d8e0e5" stroke-width="1.2"/>
  <rect x="68" y="106" width="26" height="72" rx="8" fill="#ffffff" stroke="#8b9fad" stroke-width="1.4"/>
  <path d="M 76 118 H 86 M 76 126 H 86 M 76 134 H 86 M 76 142 H 86 M 76 150 H 86 M 76 158 H 86" fill="none" stroke="#637583" stroke-width="1.6" stroke-linecap="round"/>
  <rect x="104" y="116" width="58" height="10" rx="3" fill="url(#copper)" stroke="#945d1d" stroke-width="1"/>
  <rect x="100" y="134" width="66" height="12" rx="4" fill="url(#copper)" stroke="#945d1d" stroke-width="1"/>
  <rect x="104" y="154" width="58" height="10" rx="3" fill="url(#copper)" stroke="#945d1d" stroke-width="1"/>
  <path d="M 38 140 H 68" fill="none" stroke="#294560" stroke-width="4" stroke-linecap="round"/>
  <circle cx="38" cy="140" r="5" fill="#ffffff" stroke="#294560" stroke-width="2"/>
  <path d="M 94 140 H 100" fill="none" stroke="#294560" stroke-width="3" stroke-linecap="round"/>
  <path d="M 166 121 H 182 M 166 140 H 182 M 166 159 H 182" fill="none" stroke="#294560" stroke-width="3" stroke-linecap="round"/>
  <path d="M 182 121 H 214 M 182 140 H 214 M 182 159 H 214" fill="none" stroke="#294560" stroke-width="3" stroke-linecap="round"/>
  <circle cx="214" cy="121" r="4" fill="#ffffff" stroke="#294560" stroke-width="2"/>
  <circle cx="214" cy="140" r="4" fill="#ffffff" stroke="#294560" stroke-width="2"/>
  <circle cx="214" cy="159" r="4" fill="#ffffff" stroke="#294560" stroke-width="2"/>
  <rect x="174" y="108" width="18" height="22" rx="4" fill="#ffffff" stroke="#637583" stroke-width="1.3"/>
  <rect x="174" y="136" width="18" height="8" rx="3" fill="#ffffff" stroke="#637583" stroke-width="1.3"/>
  <rect x="174" y="150" width="18" height="22" rx="4" fill="#ffffff" stroke="#637583" stroke-width="1.3"/>
  <circle cx="128" cy="214" r="4" fill="#b97a29"/>
</svg>
